# Blender 3.4.1
# www.blender.org
mtllib harold.mtl
o Cube
v 1.000000 1.000000 -1.000000
v 1.000000 -1.000000 -1.000000
v 1.000000 1.000000 1.000000
v 1.000000 -1.000000 1.000000
v -1.000000 1.000000 -1.000000
v -1.000000 -1.000000 -1.000000
v -1.000000 1.000000 1.000000
v -1.000000 -1.000000 1.000000
vn -0.0000 1.0000 -0.0000
vn -0.0000 -0.0000 1.0000
vn -1.0000 -0.0000 -0.0000
vn -0.0000 -1.0000 -0.0000
vn 1.0000 -0.0000 -0.0000
vn -0.0000 -0.0000 -1.0000
vt 1.009259 0.132280
vt 0.403836 0.122342
vt 0.997430 0.878097
vt 0.404361 0.867231
vt 1.755591 0.167062
vt 1.034498 -0.554031
vt -0.412951 0.167062
vt 0.313405 -0.554031
vt 1.755591 0.888155
vt 1.034498 1.609248
vt 1.034498 -1.275124
vt 0.313405 1.609248
vt 0.313405 -1.275124
vt -0.412951 0.893415
s 0
usemtl Material
f 1/1/1 5/5/1 7/9/1 3/3/1
f 4/4/2 3/3/2 7/10/2 8/12/2
f 8/13/3 7/11/3 5/6/3 6/8/3
f 6/7/4 2/2/4 4/4/4 8/14/4
f 2/2/5 1/1/5 3/3/5 4/4/5
f 6/8/6 5/6/6 1/1/6 2/2/6
